<mxfile host="app.diagrams.net" modified="2023-03-09T13:29:21.948Z" agent="5.0 (Windows NT 10.0; Win64; x64) AppleWebKit/537.36 (KHTML, like Gecko) Chrome/110.0.0.0 Safari/537.36 Edg/110.0.1587.63" etag="86NTA4QnOvm54mGYWs2r" version="21.0.4" type="github">
  <diagram name="第 1 页" id="Lb_gxIyqJA8a55h3Iyhm">
    <mxGraphModel dx="2027" dy="1147" grid="1" gridSize="10" guides="1" tooltips="1" connect="1" arrows="1" fold="1" page="1" pageScale="1" pageWidth="827" pageHeight="1169" math="0" shadow="0">
      <root>
        <mxCell id="0" />
        <mxCell id="1" parent="0" />
        <mxCell id="mzbfThB3kD6rosfz20jr-2" value="" style="rounded=0;whiteSpace=wrap;html=1;" vertex="1" parent="1">
          <mxGeometry x="680" y="400" width="280" height="640" as="geometry" />
        </mxCell>
        <mxCell id="mzbfThB3kD6rosfz20jr-3" value="" style="rounded=1;whiteSpace=wrap;html=1;fontSize=18;fillColor=#F19C99;" vertex="1" parent="1">
          <mxGeometry x="960" y="280" width="120" height="40" as="geometry" />
        </mxCell>
        <mxCell id="mzbfThB3kD6rosfz20jr-4" value="" style="rounded=1;whiteSpace=wrap;html=1;fillColor=#F19C99;" vertex="1" parent="1">
          <mxGeometry x="120" y="280" width="120" height="40" as="geometry" />
        </mxCell>
        <mxCell id="mzbfThB3kD6rosfz20jr-5" value="&lt;font style=&quot;font-size: 18px;&quot;&gt;Start&lt;/font&gt;" style="text;html=1;strokeColor=none;fillColor=none;align=center;verticalAlign=middle;whiteSpace=wrap;rounded=0;" vertex="1" parent="1">
          <mxGeometry x="130" y="285" width="60" height="30" as="geometry" />
        </mxCell>
        <mxCell id="mzbfThB3kD6rosfz20jr-6" value="" style="endArrow=classic;html=1;rounded=0;fontSize=18;" edge="1" parent="1">
          <mxGeometry width="50" height="50" relative="1" as="geometry">
            <mxPoint x="80" y="320" as="sourcePoint" />
            <mxPoint x="1120" y="320" as="targetPoint" />
          </mxGeometry>
        </mxCell>
        <mxCell id="mzbfThB3kD6rosfz20jr-7" value="Pre-copy" style="rounded=0;whiteSpace=wrap;html=1;fontSize=18;fillColor=#E6FFCC;" vertex="1" parent="1">
          <mxGeometry x="440" y="280" width="160" height="40" as="geometry" />
        </mxCell>
        <mxCell id="mzbfThB3kD6rosfz20jr-8" value="Downtime" style="rounded=0;whiteSpace=wrap;html=1;fontSize=18;fillColor=#9AC7BF;" vertex="1" parent="1">
          <mxGeometry x="600" y="280" width="120" height="40" as="geometry" />
        </mxCell>
        <mxCell id="mzbfThB3kD6rosfz20jr-9" value="Post-copy" style="rounded=0;whiteSpace=wrap;html=1;fontSize=18;fillColor=#E6FFCC;" vertex="1" parent="1">
          <mxGeometry x="720" y="280" width="280" height="40" as="geometry" />
        </mxCell>
        <mxCell id="mzbfThB3kD6rosfz20jr-10" value="&lt;font style=&quot;font-size: 18px;&quot;&gt;End&lt;/font&gt;" style="text;html=1;strokeColor=none;fillColor=none;align=center;verticalAlign=middle;whiteSpace=wrap;rounded=0;" vertex="1" parent="1">
          <mxGeometry x="1010" y="285" width="60" height="30" as="geometry" />
        </mxCell>
        <mxCell id="mzbfThB3kD6rosfz20jr-11" value="Timeline" style="text;html=1;strokeColor=none;fillColor=none;align=center;verticalAlign=middle;whiteSpace=wrap;rounded=0;fontSize=18;" vertex="1" parent="1">
          <mxGeometry x="1020" y="320" width="100" height="30" as="geometry" />
        </mxCell>
        <mxCell id="mzbfThB3kD6rosfz20jr-12" value="" style="fontColor=#0066CC;verticalAlign=top;verticalLabelPosition=bottom;labelPosition=center;align=center;html=1;outlineConnect=0;fillColor=#CCCCCC;strokeColor=#6881B3;gradientColor=none;gradientDirection=north;strokeWidth=2;shape=mxgraph.networks.pc;fontSize=18;" vertex="1" parent="1">
          <mxGeometry x="375" y="230" width="50" height="35" as="geometry" />
        </mxCell>
        <mxCell id="mzbfThB3kD6rosfz20jr-13" value="" style="endArrow=none;html=1;rounded=0;fontSize=18;exitX=0;exitY=0;exitDx=0;exitDy=0;" edge="1" parent="1" source="mzbfThB3kD6rosfz20jr-37">
          <mxGeometry width="50" height="50" relative="1" as="geometry">
            <mxPoint x="200" y="280" as="sourcePoint" />
            <mxPoint x="200" y="240" as="targetPoint" />
          </mxGeometry>
        </mxCell>
        <mxCell id="mzbfThB3kD6rosfz20jr-14" value="" style="endArrow=none;html=1;rounded=0;fontSize=18;" edge="1" parent="1">
          <mxGeometry width="50" height="50" relative="1" as="geometry">
            <mxPoint x="600" y="280" as="sourcePoint" />
            <mxPoint x="600" y="240" as="targetPoint" />
          </mxGeometry>
        </mxCell>
        <mxCell id="mzbfThB3kD6rosfz20jr-15" value="VM on src server" style="text;html=1;strokeColor=none;fillColor=none;align=center;verticalAlign=middle;whiteSpace=wrap;rounded=0;fontSize=18;" vertex="1" parent="1">
          <mxGeometry x="320" y="200" width="160" height="30" as="geometry" />
        </mxCell>
        <mxCell id="mzbfThB3kD6rosfz20jr-16" value="" style="endArrow=classic;html=1;rounded=0;fontSize=18;dashed=1;" edge="1" parent="1">
          <mxGeometry width="50" height="50" relative="1" as="geometry">
            <mxPoint x="360" y="260" as="sourcePoint" />
            <mxPoint x="200" y="260" as="targetPoint" />
          </mxGeometry>
        </mxCell>
        <mxCell id="mzbfThB3kD6rosfz20jr-17" value="" style="endArrow=classic;html=1;rounded=0;fontSize=18;dashed=1;" edge="1" parent="1">
          <mxGeometry width="50" height="50" relative="1" as="geometry">
            <mxPoint x="440" y="260" as="sourcePoint" />
            <mxPoint x="600" y="260" as="targetPoint" />
          </mxGeometry>
        </mxCell>
        <mxCell id="mzbfThB3kD6rosfz20jr-18" value="" style="endArrow=none;html=1;rounded=0;fontSize=18;" edge="1" parent="1">
          <mxGeometry width="50" height="50" relative="1" as="geometry">
            <mxPoint x="720" y="280" as="sourcePoint" />
            <mxPoint x="720" y="240" as="targetPoint" />
          </mxGeometry>
        </mxCell>
        <mxCell id="mzbfThB3kD6rosfz20jr-19" value="" style="endArrow=none;html=1;rounded=0;fontSize=18;" edge="1" parent="1">
          <mxGeometry width="50" height="50" relative="1" as="geometry">
            <mxPoint x="1000" y="280" as="sourcePoint" />
            <mxPoint x="1000" y="240" as="targetPoint" />
          </mxGeometry>
        </mxCell>
        <mxCell id="mzbfThB3kD6rosfz20jr-20" value="" style="fontColor=#0066CC;verticalAlign=top;verticalLabelPosition=bottom;labelPosition=center;align=center;html=1;outlineConnect=0;fillColor=#CCCCCC;strokeColor=#6881B3;gradientColor=none;gradientDirection=north;strokeWidth=2;shape=mxgraph.networks.pc;fontSize=18;" vertex="1" parent="1">
          <mxGeometry x="835" y="230" width="50" height="35" as="geometry" />
        </mxCell>
        <mxCell id="mzbfThB3kD6rosfz20jr-21" value="" style="endArrow=classic;html=1;rounded=0;fontSize=18;dashed=1;" edge="1" parent="1">
          <mxGeometry width="50" height="50" relative="1" as="geometry">
            <mxPoint x="800" y="260" as="sourcePoint" />
            <mxPoint x="720" y="260" as="targetPoint" />
          </mxGeometry>
        </mxCell>
        <mxCell id="mzbfThB3kD6rosfz20jr-22" value="" style="endArrow=classic;html=1;rounded=0;fontSize=18;dashed=1;" edge="1" parent="1">
          <mxGeometry width="50" height="50" relative="1" as="geometry">
            <mxPoint x="920" y="260" as="sourcePoint" />
            <mxPoint x="1000" y="260" as="targetPoint" />
          </mxGeometry>
        </mxCell>
        <mxCell id="mzbfThB3kD6rosfz20jr-23" value="VM on dst server" style="text;html=1;strokeColor=none;fillColor=none;align=center;verticalAlign=middle;whiteSpace=wrap;rounded=0;fontSize=18;" vertex="1" parent="1">
          <mxGeometry x="780" y="200" width="160" height="30" as="geometry" />
        </mxCell>
        <mxCell id="mzbfThB3kD6rosfz20jr-24" value="" style="ellipse;shape=cloud;whiteSpace=wrap;html=1;fontSize=18;fillColor=#F19C99;" vertex="1" parent="1">
          <mxGeometry x="622.5" y="170" width="75" height="50" as="geometry" />
        </mxCell>
        <mxCell id="mzbfThB3kD6rosfz20jr-25" value="" style="curved=1;endArrow=classic;html=1;rounded=0;fontSize=18;dashed=1;" edge="1" parent="1">
          <mxGeometry width="50" height="50" relative="1" as="geometry">
            <mxPoint x="600" y="260" as="sourcePoint" />
            <mxPoint x="630" y="200" as="targetPoint" />
            <Array as="points">
              <mxPoint x="600" y="210" />
            </Array>
          </mxGeometry>
        </mxCell>
        <mxCell id="mzbfThB3kD6rosfz20jr-26" value="" style="curved=1;endArrow=classic;html=1;rounded=0;dashed=1;fontSize=18;" edge="1" parent="1">
          <mxGeometry width="50" height="50" relative="1" as="geometry">
            <mxPoint x="690" y="200" as="sourcePoint" />
            <mxPoint x="720" y="260" as="targetPoint" />
            <Array as="points">
              <mxPoint x="720" y="200" />
            </Array>
          </mxGeometry>
        </mxCell>
        <mxCell id="mzbfThB3kD6rosfz20jr-27" value="vmstate transmission" style="text;html=1;strokeColor=none;fillColor=none;align=center;verticalAlign=middle;whiteSpace=wrap;rounded=0;fontSize=18;" vertex="1" parent="1">
          <mxGeometry x="630" y="230" width="60" height="30" as="geometry" />
        </mxCell>
        <mxCell id="mzbfThB3kD6rosfz20jr-37" value="Save Header" style="rounded=0;whiteSpace=wrap;html=1;fontSize=18;fillColor=#CCCCCC;" vertex="1" parent="1">
          <mxGeometry x="200" y="280" width="120" height="40" as="geometry" />
        </mxCell>
        <mxCell id="mzbfThB3kD6rosfz20jr-38" value="Save Setup" style="rounded=0;whiteSpace=wrap;html=1;fontSize=18;fillColor=#FFF4C3;" vertex="1" parent="1">
          <mxGeometry x="320" y="280" width="120" height="40" as="geometry" />
        </mxCell>
        <mxCell id="mzbfThB3kD6rosfz20jr-39" value="Backup Image" style="text;html=1;strokeColor=none;fillColor=none;align=center;verticalAlign=middle;whiteSpace=wrap;rounded=0;fontSize=18;" vertex="1" parent="1">
          <mxGeometry x="740" y="360" width="160" height="40" as="geometry" />
        </mxCell>
        <mxCell id="mzbfThB3kD6rosfz20jr-40" value="" style="shape=flexArrow;endArrow=classic;html=1;rounded=0;entryX=0;entryY=0.5;entryDx=0;entryDy=0;strokeColor=none;fillColor=#E5CCFF;strokeWidth=5;" edge="1" parent="1" target="mzbfThB3kD6rosfz20jr-41">
          <mxGeometry width="50" height="50" relative="1" as="geometry">
            <mxPoint x="260" y="320" as="sourcePoint" />
            <mxPoint x="370" y="520" as="targetPoint" />
            <Array as="points">
              <mxPoint x="260" y="440" />
            </Array>
          </mxGeometry>
        </mxCell>
        <mxCell id="mzbfThB3kD6rosfz20jr-41" value="&lt;font style=&quot;font-size: 18px;&quot;&gt;VM Header:&lt;br&gt;Machine Type, Version id, ...&lt;/font&gt;" style="rounded=0;whiteSpace=wrap;html=1;fillColor=#CCCCCC;" vertex="1" parent="1">
          <mxGeometry x="680" y="400" width="280" height="80" as="geometry" />
        </mxCell>
        <mxCell id="mzbfThB3kD6rosfz20jr-45" value="&lt;font style=&quot;font-size: 18px;&quot;&gt;&lt;br&gt;&lt;/font&gt;" style="rounded=0;whiteSpace=wrap;html=1;fillColor=#FFF4C3;" vertex="1" parent="1">
          <mxGeometry x="680" y="480" width="280" height="220" as="geometry" />
        </mxCell>
        <mxCell id="mzbfThB3kD6rosfz20jr-46" value="&lt;span style=&quot;font-size: 18px;&quot;&gt;Device 1: Section id, id string, &lt;br&gt;instance id, ...&lt;br&gt;&lt;/span&gt;" style="rounded=0;whiteSpace=wrap;html=1;fillColor=#CCFFFF;" vertex="1" parent="1">
          <mxGeometry x="700" y="520" width="240" height="60" as="geometry" />
        </mxCell>
        <mxCell id="mzbfThB3kD6rosfz20jr-47" value="&lt;font style=&quot;font-size: 18px;&quot;&gt;VM Setup: Device Meta&lt;/font&gt;" style="text;html=1;strokeColor=none;fillColor=none;align=center;verticalAlign=middle;whiteSpace=wrap;rounded=0;" vertex="1" parent="1">
          <mxGeometry x="680" y="480" width="280" height="40" as="geometry" />
        </mxCell>
        <mxCell id="mzbfThB3kD6rosfz20jr-48" value="&lt;span style=&quot;font-size: 18px;&quot;&gt;Device 2: Section id, id string, &lt;br&gt;instance id, ...&lt;br&gt;&lt;/span&gt;" style="rounded=0;whiteSpace=wrap;html=1;fillColor=#CCFFFF;" vertex="1" parent="1">
          <mxGeometry x="700" y="600" width="240" height="60" as="geometry" />
        </mxCell>
        <mxCell id="mzbfThB3kD6rosfz20jr-49" value="&lt;font style=&quot;font-size: 18px;&quot;&gt;......&lt;/font&gt;" style="text;html=1;strokeColor=none;fillColor=none;align=center;verticalAlign=middle;whiteSpace=wrap;rounded=0;" vertex="1" parent="1">
          <mxGeometry x="790" y="660" width="60" height="30" as="geometry" />
        </mxCell>
        <mxCell id="mzbfThB3kD6rosfz20jr-50" value="" style="rounded=0;whiteSpace=wrap;html=1;fillColor=#E6FFCC;" vertex="1" parent="1">
          <mxGeometry x="680" y="700" width="280" height="280" as="geometry" />
        </mxCell>
        <mxCell id="mzbfThB3kD6rosfz20jr-51" value="&lt;font style=&quot;font-size: 18px;&quot;&gt;Pre-copy: Iterations&lt;/font&gt;" style="text;html=1;strokeColor=none;fillColor=none;align=center;verticalAlign=middle;whiteSpace=wrap;rounded=0;" vertex="1" parent="1">
          <mxGeometry x="680" y="700" width="280" height="40" as="geometry" />
        </mxCell>
        <mxCell id="mzbfThB3kD6rosfz20jr-54" value="" style="rounded=0;whiteSpace=wrap;html=1;fillColor=#FFCCCC;" vertex="1" parent="1">
          <mxGeometry x="700" y="740" width="240" height="220" as="geometry" />
        </mxCell>
        <mxCell id="mzbfThB3kD6rosfz20jr-52" value="&lt;font style=&quot;font-size: 18px;&quot;&gt;Offset&lt;/font&gt;" style="rounded=0;whiteSpace=wrap;html=1;" vertex="1" parent="1">
          <mxGeometry x="720" y="780" width="100" height="40" as="geometry" />
        </mxCell>
        <mxCell id="mzbfThB3kD6rosfz20jr-53" value="&lt;font style=&quot;font-size: 18px;&quot;&gt;Content&lt;/font&gt;" style="rounded=0;whiteSpace=wrap;html=1;" vertex="1" parent="1">
          <mxGeometry x="820" y="780" width="100" height="40" as="geometry" />
        </mxCell>
        <mxCell id="mzbfThB3kD6rosfz20jr-55" value="&lt;font style=&quot;font-size: 18px;&quot;&gt;RAM Device&lt;/font&gt;" style="text;html=1;strokeColor=none;fillColor=none;align=center;verticalAlign=middle;whiteSpace=wrap;rounded=0;" vertex="1" parent="1">
          <mxGeometry x="700" y="740" width="240" height="40" as="geometry" />
        </mxCell>
        <mxCell id="mzbfThB3kD6rosfz20jr-56" value="&lt;font style=&quot;font-size: 18px;&quot;&gt;Offset&lt;/font&gt;" style="rounded=0;whiteSpace=wrap;html=1;" vertex="1" parent="1">
          <mxGeometry x="720" y="840" width="100" height="40" as="geometry" />
        </mxCell>
        <mxCell id="mzbfThB3kD6rosfz20jr-57" value="&lt;font style=&quot;font-size: 18px;&quot;&gt;Content&lt;/font&gt;" style="rounded=0;whiteSpace=wrap;html=1;" vertex="1" parent="1">
          <mxGeometry x="820" y="840" width="100" height="40" as="geometry" />
        </mxCell>
        <mxCell id="mzbfThB3kD6rosfz20jr-58" value="&lt;font style=&quot;font-size: 18px;&quot;&gt;......&lt;/font&gt;" style="text;html=1;strokeColor=none;fillColor=none;align=center;verticalAlign=middle;whiteSpace=wrap;rounded=0;" vertex="1" parent="1">
          <mxGeometry x="790" y="880" width="60" height="20" as="geometry" />
        </mxCell>
        <mxCell id="mzbfThB3kD6rosfz20jr-59" value="&lt;font style=&quot;font-size: 18px;&quot;&gt;Offset&lt;/font&gt;" style="rounded=0;whiteSpace=wrap;html=1;" vertex="1" parent="1">
          <mxGeometry x="720" y="910" width="100" height="40" as="geometry" />
        </mxCell>
        <mxCell id="mzbfThB3kD6rosfz20jr-60" value="&lt;font style=&quot;font-size: 18px;&quot;&gt;Content&lt;/font&gt;" style="rounded=0;whiteSpace=wrap;html=1;" vertex="1" parent="1">
          <mxGeometry x="820" y="910" width="100" height="40" as="geometry" />
        </mxCell>
        <mxCell id="mzbfThB3kD6rosfz20jr-43" value="" style="shape=flexArrow;endArrow=classic;html=1;rounded=0;entryX=0;entryY=0.5;entryDx=0;entryDy=0;strokeColor=none;fillColor=#9AC7BF;strokeWidth=5;" edge="1" parent="1" target="mzbfThB3kD6rosfz20jr-48">
          <mxGeometry width="50" height="50" relative="1" as="geometry">
            <mxPoint x="360" y="320" as="sourcePoint" />
            <mxPoint x="800" y="520" as="targetPoint" />
            <Array as="points">
              <mxPoint x="360" y="630" />
            </Array>
          </mxGeometry>
        </mxCell>
        <mxCell id="mzbfThB3kD6rosfz20jr-64" value="" style="shape=flexArrow;endArrow=classic;html=1;rounded=0;entryX=0;entryY=0.5;entryDx=0;entryDy=0;strokeColor=none;fillColor=#9AC7BF;strokeWidth=5;" edge="1" parent="1" target="mzbfThB3kD6rosfz20jr-46">
          <mxGeometry width="50" height="50" relative="1" as="geometry">
            <mxPoint x="400" y="320" as="sourcePoint" />
            <mxPoint x="740" y="630" as="targetPoint" />
            <Array as="points">
              <mxPoint x="400" y="550" />
            </Array>
          </mxGeometry>
        </mxCell>
        <mxCell id="mzbfThB3kD6rosfz20jr-61" value="" style="shape=flexArrow;endArrow=classic;html=1;rounded=0;entryX=0;entryY=1;entryDx=0;entryDy=0;strokeColor=none;fillColor=#A9C4EB;strokeWidth=5;" edge="1" parent="1">
          <mxGeometry width="50" height="50" relative="1" as="geometry">
            <mxPoint x="460" y="320" as="sourcePoint" />
            <mxPoint x="720" y="930" as="targetPoint" />
            <Array as="points">
              <mxPoint x="460" y="930" />
            </Array>
          </mxGeometry>
        </mxCell>
        <mxCell id="mzbfThB3kD6rosfz20jr-62" value="" style="shape=flexArrow;endArrow=classic;html=1;rounded=0;entryX=0;entryY=1;entryDx=0;entryDy=0;strokeColor=none;fillColor=#A9C4EB;strokeWidth=5;" edge="1" parent="1">
          <mxGeometry width="50" height="50" relative="1" as="geometry">
            <mxPoint x="500" y="320" as="sourcePoint" />
            <mxPoint x="720" y="860" as="targetPoint" />
            <Array as="points">
              <mxPoint x="500" y="860" />
            </Array>
          </mxGeometry>
        </mxCell>
        <mxCell id="mzbfThB3kD6rosfz20jr-63" value="" style="shape=flexArrow;endArrow=classic;html=1;rounded=0;entryX=0;entryY=1;entryDx=0;entryDy=0;strokeColor=none;fillColor=#A9C4EB;strokeWidth=5;exitX=0.625;exitY=1;exitDx=0;exitDy=0;exitPerimeter=0;" edge="1" parent="1" source="mzbfThB3kD6rosfz20jr-7">
          <mxGeometry width="50" height="50" relative="1" as="geometry">
            <mxPoint x="460" y="190" as="sourcePoint" />
            <mxPoint x="720" y="800" as="targetPoint" />
            <Array as="points">
              <mxPoint x="540" y="800" />
            </Array>
          </mxGeometry>
        </mxCell>
        <mxCell id="mzbfThB3kD6rosfz20jr-65" value="" style="shape=flexArrow;endArrow=classic;html=1;rounded=0;entryX=0;entryY=0.5;entryDx=0;entryDy=0;strokeColor=none;fillColor=#FFCC99;strokeWidth=5;exitX=0.625;exitY=1;exitDx=0;exitDy=0;exitPerimeter=0;" edge="1" parent="1" target="mzbfThB3kD6rosfz20jr-66">
          <mxGeometry width="50" height="50" relative="1" as="geometry">
            <mxPoint x="620" y="320" as="sourcePoint" />
            <mxPoint x="800" y="800" as="targetPoint" />
            <Array as="points">
              <mxPoint x="620" y="1010" />
            </Array>
          </mxGeometry>
        </mxCell>
        <mxCell id="mzbfThB3kD6rosfz20jr-66" value="&lt;font style=&quot;font-size: 18px;&quot;&gt;VM State: Cpu states&lt;/font&gt;" style="rounded=0;whiteSpace=wrap;html=1;fillColor=#9AC7BF;" vertex="1" parent="1">
          <mxGeometry x="680" y="980" width="280" height="60" as="geometry" />
        </mxCell>
      </root>
    </mxGraphModel>
  </diagram>
</mxfile>
